<svg width="130" height="130" viewBox="0 0 130 130" fill="none" xmlns="http://www.w3.org/2000/svg">
<path d="M67.094 23.4047V20.9047H67.0523L67.0107 20.9061L67.094 23.4047ZM36.2462 47.4521L38.5643 48.3881L38.5644 48.3881L36.2462 47.4521ZM16.0192 49.9119L13.5385 49.6018L13.5321 49.653L13.5279 49.7043L16.0192 49.9119ZM34.7681 25.3443L33.4259 23.2351L33.4259 23.2351L34.7681 25.3443ZM105.238 30.5164L103.421 32.233L103.421 32.2332L105.238 30.5164ZM106.414 31.7575L104.599 33.4774L104.599 33.4776L106.414 31.7575ZM122.694 73.1865L120.195 73.1208V73.1208L122.694 73.1865ZM17.9587 98.4007L20.1323 97.1657L20.0883 97.0882L20.0388 97.014L17.9587 98.4007ZM17.9587 93.8751L15.7226 92.757H15.7226L17.9587 93.8751ZM18.2241 93.3287L15.9711 92.2451L15.9709 92.2454L18.2241 93.3287ZM50.2845 58.9632L49.1148 56.7537L49.1148 56.7537L50.2845 58.9632ZM89.8527 48.5983L89.8839 46.0985L89.8837 46.0985L89.8527 48.5983ZM67.0107 20.9061C63.5532 21.0214 58.0412 21.7733 52.5962 24.0191C47.1455 26.2672 41.5533 30.1049 38.3507 36.5101L42.8229 38.7461C45.3096 33.7726 49.7385 30.6063 54.5027 28.6414C59.2727 26.674 64.1696 26.0036 67.1773 25.9033L67.0107 20.9061ZM38.3507 36.5101C36.3603 40.4908 35.0131 43.8288 33.928 46.516L38.5644 48.3881C39.6462 45.7089 40.9295 42.5329 42.8229 38.7461L38.3507 36.5101ZM33.9281 46.516C32.4146 50.2639 31.5545 52.2902 30.3934 53.5332C29.4855 54.5051 28.2021 55.1701 25.0704 55.1701V60.1701C28.9884 60.1701 31.8507 59.2977 34.0472 56.9464C35.9904 54.8662 37.1933 51.7835 38.5643 48.3881L33.9281 46.516ZM25.0704 55.1701C21.7918 55.1701 20.2487 54.1073 19.491 53.1795C18.6541 52.1547 18.4462 50.8922 18.5106 50.1195L13.5279 49.7043C13.3767 51.5177 13.8153 54.1343 15.6183 56.3421C17.5005 58.6469 20.5907 60.1701 25.0704 60.1701V55.1701ZM18.4999 50.222C19.0424 45.8823 23.77 35.3064 36.1103 27.4534L33.4259 23.2351C19.9956 31.7817 14.2891 43.5973 13.5385 49.6018L18.4999 50.222ZM36.1103 27.4534C49.9061 18.6743 58.4858 17.5 67.094 17.5V12.5C57.5997 12.5 48.077 13.9117 33.4259 23.2351L36.1103 27.4534ZM67.094 17.5C71.3227 17.5 77.8361 18.417 84.624 20.7576C91.4107 23.0979 98.2877 26.7977 103.421 32.233L107.056 28.7999C101.199 22.5978 93.529 18.5394 86.2539 16.0308C78.98 13.5225 71.9165 12.5 67.094 12.5V17.5ZM103.421 32.2332C103.818 32.6532 104.211 33.0681 104.599 33.4774L108.228 30.0376C107.839 29.6276 107.449 29.216 107.056 28.7997L103.421 32.2332ZM104.599 33.4776C109.387 38.5271 113.335 42.7161 116.099 48.464C118.84 54.163 120.499 61.5933 120.195 73.1208L125.194 73.2523C125.511 61.1762 123.783 52.905 120.605 46.2969C117.45 39.7376 112.946 35.0138 108.228 30.0373L104.599 33.4776ZM120.195 73.1208C119.577 96.6116 99.7425 124.347 67.7405 124.347V129.347C102.976 129.347 124.519 98.8968 125.194 73.2523L120.195 73.1208ZM67.7405 124.347C39.9066 124.347 25.2879 106.239 20.1323 97.1657L15.7851 99.6357C21.4048 109.526 37.3881 129.347 67.7405 129.347V124.347ZM20.0388 97.014C20.07 97.0607 19.9373 96.8479 19.8979 96.4342C19.863 96.068 19.9047 95.5733 20.1948 94.9931L15.7226 92.757C14.2321 95.7381 15.022 98.5025 15.8786 99.7874L20.0388 97.014ZM20.1948 94.9931C20.2727 94.8373 20.3706 94.6336 20.4772 94.4119L15.9709 92.2454C15.8577 92.481 15.7792 92.6439 15.7226 92.757L20.1948 94.9931ZM20.477 94.4122C22.4428 90.3249 31.3697 71.8056 51.4543 61.1726L49.1148 56.7537C27.5223 68.185 18.0132 87.999 15.9711 92.2451L20.477 94.4122ZM51.4543 61.1726C61.299 55.9607 68.8081 53.4363 74.8433 52.2131C80.8727 50.9911 85.5272 51.0448 89.8217 51.0981L89.8837 46.0985C85.5505 46.0448 80.4389 45.9774 73.8501 47.3127C67.267 48.647 59.3059 51.3585 49.1148 56.7537L51.4543 61.1726ZM89.8214 51.0981C90.6568 51.1086 91.4888 51.1189 92.3082 51.1189V46.1189C91.5252 46.1189 90.7244 46.109 89.8839 46.0985L89.8214 51.0981ZM92.3082 51.1189C94.6686 51.1189 96.693 50.9523 98.3606 50.5711C100.004 50.1956 101.529 49.5607 102.642 48.4471C103.844 47.2459 104.327 45.7291 104.261 44.1509C104.2 42.6774 103.668 41.1803 102.949 39.7426L98.4769 41.9787C99.0511 43.1271 99.2463 43.8928 99.2657 44.3589C99.2808 44.7202 99.1986 44.8198 99.1068 44.9115C98.9273 45.0911 98.4319 45.4259 97.2465 45.6969C96.0856 45.9622 94.4733 46.1189 92.3082 46.1189V51.1189ZM102.949 39.7426C102.295 38.4341 100.917 36.6416 99.0659 34.7489C97.172 32.812 94.6546 30.6384 91.5938 28.5979C85.4785 24.5211 77.0833 20.9047 67.094 20.9047V25.9047C75.8537 25.9047 83.2982 29.0768 88.8203 32.7582C91.5782 34.5967 93.8288 36.5447 95.4909 38.2445C97.196 39.9884 98.1614 41.3477 98.4769 41.9787L102.949 39.7426ZM84.5501 100.254C94.8574 100.254 103.213 91.8986 103.213 81.5913H98.213C98.213 89.1371 92.096 95.2542 84.5501 95.2542V100.254ZM103.213 81.5913C103.213 71.284 94.8574 62.9283 84.5501 62.9283V67.9283C92.096 67.9283 98.213 74.0454 98.213 81.5913H103.213ZM84.5501 62.9283C74.2428 62.9283 65.8871 71.284 65.8871 81.5913H70.8871C70.8871 74.0454 77.0042 67.9283 84.5501 67.9283V62.9283ZM65.8871 81.5913C65.8871 91.8986 74.2428 100.254 84.5501 100.254V95.2542C77.0042 95.2542 70.8871 89.1371 70.8871 81.5913H65.8871Z" fill="url(#paint0_linear_101_1475)"/>
<path d="M47 111.164C47 111.164 60.5601 105.379 66.6695 115.056" stroke="#D01B7C" stroke-width="2" stroke-linecap="round" stroke-linejoin="round"/>
<path d="M23 25.3715C23 25.3715 23.5662 19.855 32.262 17" stroke="#D01B7C" stroke-width="2" stroke-linecap="round" stroke-linejoin="round"/>
<path d="M15 26.2262C15 26.2262 18.2802 13.4066 30.636 11" stroke="#D01B7C" stroke-width="2" stroke-linecap="round" stroke-linejoin="round"/>
<path d="M8 25.7865C8 25.7865 9.02727 7.86885 30.1831 4" stroke="#D01B7C" stroke-width="2" stroke-linecap="round" stroke-linejoin="round"/>
<defs>
<linearGradient id="paint0_linear_101_1475" x1="-2.84832" y1="52.2919" x2="59.9007" y2="143.338" gradientUnits="userSpaceOnUse">
<stop stop-color="#F7941D"/>
<stop offset="0.325967" stop-color="#EC7C30"/>
<stop offset="0.685083" stop-color="#DA316A"/>
<stop offset="1" stop-color="#D01A7C"/>
</linearGradient>
</defs>
</svg>
