<svg width="28" height="28" viewBox="0 0 28 28" fill="none" xmlns="http://www.w3.org/2000/svg">
<path d="M14.0001 0.666748C13.6465 0.666748 13.3073 0.807224 13.0573 1.05727C12.8072 1.30732 12.6667 1.64646 12.6667 2.00008V4.66675C12.6667 5.02037 12.8072 5.35951 13.0573 5.60956C13.3073 5.85961 13.6465 6.00008 14.0001 6.00008C14.3537 6.00008 14.6928 5.85961 14.9429 5.60956C15.1929 5.35951 15.3334 5.02037 15.3334 4.66675V2.00008C15.3334 1.64646 15.1929 1.30732 14.9429 1.05727C14.6928 0.807224 14.3537 0.666748 14.0001 0.666748ZM26.0001 12.6667H23.3334C22.9798 12.6667 22.6407 12.8072 22.3906 13.0573C22.1406 13.3073 22.0001 13.6465 22.0001 14.0001C22.0001 14.3537 22.1406 14.6928 22.3906 14.9429C22.6407 15.1929 22.9798 15.3334 23.3334 15.3334H26.0001C26.3537 15.3334 26.6928 15.1929 26.9429 14.9429C27.1929 14.6928 27.3334 14.3537 27.3334 14.0001C27.3334 13.6465 27.1929 13.3073 26.9429 13.0573C26.6928 12.8072 26.3537 12.6667 26.0001 12.6667ZM6.00008 14.0001C6.00008 13.6465 5.85961 13.3073 5.60956 13.0573C5.35951 12.8072 5.02037 12.6667 4.66675 12.6667H2.00008C1.64646 12.6667 1.30732 12.8072 1.05727 13.0573C0.807224 13.3073 0.666748 13.6465 0.666748 14.0001C0.666748 14.3537 0.807224 14.6928 1.05727 14.9429C1.30732 15.1929 1.64646 15.3334 2.00008 15.3334H4.66675C5.02037 15.3334 5.35951 15.1929 5.60956 14.9429C5.85961 14.6928 6.00008 14.3537 6.00008 14.0001ZM6.29341 4.66675C6.0335 4.42098 5.6866 4.28853 5.32904 4.29853C4.97147 4.30853 4.63252 4.46017 4.38675 4.72008C4.14098 4.97999 4.00853 5.32689 4.01853 5.68446C4.02853 6.04203 4.18017 6.38098 4.44008 6.62675L6.36008 8.48008C6.48893 8.6045 6.64152 8.70167 6.80875 8.76582C6.97598 8.82996 7.15442 8.85975 7.33342 8.85342C7.51302 8.85273 7.69064 8.81576 7.8556 8.74474C8.02057 8.67371 8.16949 8.57008 8.29341 8.44008C8.54175 8.19026 8.68114 7.85233 8.68114 7.50008C8.68114 7.14783 8.54175 6.8099 8.29341 6.56008L6.29341 4.66675ZM20.6667 8.85342C21.01 8.85205 21.3396 8.71832 21.5868 8.48008L23.5067 6.62675C23.741 6.38202 23.8733 6.05731 23.8767 5.71857C23.8802 5.37984 23.7547 5.05248 23.5255 4.80297C23.2964 4.55347 22.9809 4.40054 22.6431 4.37524C22.3053 4.34994 21.9705 4.45416 21.7067 4.66675L19.7867 6.56008C19.5384 6.8099 19.399 7.14783 19.399 7.50008C19.399 7.85233 19.5384 8.19026 19.7867 8.44008C20.0176 8.68371 20.3318 8.83131 20.6667 8.85342ZM14.0001 22.0001C13.6465 22.0001 13.3073 22.1406 13.0573 22.3906C12.8072 22.6407 12.6667 22.9798 12.6667 23.3334V26.0001C12.6667 26.3537 12.8072 26.6928 13.0573 26.9429C13.3073 27.1929 13.6465 27.3334 14.0001 27.3334C14.3537 27.3334 14.6928 27.1929 14.9429 26.9429C15.1929 26.6928 15.3334 26.3537 15.3334 26.0001V23.3334C15.3334 22.9798 15.1929 22.6407 14.9429 22.3906C14.6928 22.1406 14.3537 22.0001 14.0001 22.0001ZM21.6401 19.5201C21.3855 19.2743 21.0437 19.1398 20.6898 19.146C20.336 19.1523 19.9992 19.2988 19.7534 19.5534C19.5076 19.808 19.3731 20.1498 19.3793 20.5037C19.3856 20.8575 19.5321 21.1943 19.7867 21.4401L21.7067 23.3334C21.9539 23.5717 22.2835 23.7054 22.6267 23.7067C22.8054 23.7078 22.9824 23.6729 23.1474 23.6042C23.3123 23.5355 23.4617 23.4343 23.5868 23.3067C23.7117 23.1828 23.8109 23.0353 23.8786 22.8729C23.9463 22.7104 23.9811 22.5361 23.9811 22.3601C23.9811 22.1841 23.9463 22.0098 23.8786 21.8473C23.8109 21.6848 23.7117 21.5374 23.5868 21.4134L21.6401 19.5201ZM6.36008 19.5201L4.44008 21.3734C4.31511 21.4974 4.21592 21.6448 4.14823 21.8073C4.08053 21.9698 4.04568 22.1441 4.04568 22.3201C4.04568 22.4961 4.08053 22.6704 4.14823 22.8329C4.21592 22.9953 4.31511 23.1428 4.44008 23.2668C4.56514 23.3943 4.71456 23.4955 4.87947 23.5642C5.04439 23.6329 5.22143 23.6678 5.40008 23.6667C5.72877 23.6695 6.0469 23.5508 6.29341 23.3334L8.21341 21.4801C8.46802 21.2343 8.61457 20.8975 8.62082 20.5437C8.62707 20.1898 8.49252 19.848 8.24675 19.5934C8.00098 19.3388 7.66414 19.1923 7.31032 19.186C6.9565 19.1798 6.61469 19.3143 6.36008 19.5601V19.5201Z" fill="#C8C8C8"/>
</svg>
